Coordinates
version=1
nRows=18
nColumns=22
inDegrees=yes

Units are S.I. units (second, meters, Newtons, ...)
If the header above contains a line with 'inDegrees', this indicates whether rotational values are in degrees (yes) or radians (no).

endheader
time	pelvis_tilt	pelvis_list	pelvis_rotation	pelvis_tx	pelvis_ty	pelvis_tz	hip_flexion_r	hip_adduction_r	hip_rotation_r	knee_angle_r	ankle_angle_r	subtalar_angle_r	hip_flexion_l	hip_adduction_l	hip_rotation_l	knee_angle_l	ankle_angle_l	subtalar_angle_l	lumbar_extension	lumbar_bending	lumbar_rotation
      0.01000000	     -0.67734744	      1.02115045	    -27.79704427	     -0.97980647	      0.90498556	     -0.39369212	     -4.74693061	     -0.72328536	     -5.43074994	     -1.14854945	     15.90037226	      0.28043295	      1.72013088	     -0.84185620	    -12.83132141	    -13.12749348	     14.82404478	      1.11637674	     -4.66384647	     -2.92193553	      4.43370753
      0.02000000	     -0.65548051	      1.01571182	    -27.78003335	     -0.97946495	      0.90501216	     -0.39401677	     -4.74148010	     -0.75440629	     -5.43099116	     -1.22209912	     15.87529260	      0.23898799	      1.70909897	     -0.80537976	    -12.80540913	    -13.16557888	     14.81956478	      1.11721641	     -4.71955710	     -2.91997469	      4.45349427
      0.03000000	     -0.60011189	      0.97487677	    -27.73559264	     -0.97900694	      0.90509764	     -0.39441666	     -4.78349086	     -0.76996554	     -5.51194774	     -1.31552905	     15.89644083	      0.06767427	      1.63317937	     -0.77692913	    -12.74729269	    -13.17719101	     14.83871898	      1.08608389	     -4.83368255	     -2.89472734	      4.43708652
      0.04000000	     -0.54696580	      0.93717476	    -27.67555712	     -0.97851668	      0.90517049	     -0.39489132	     -4.84954485	     -0.78865509	     -5.54103712	     -1.36013944	     15.88802735	     -0.08039354	      1.58320993	     -0.74556164	    -12.66960367	    -13.22855107	     14.87102284	      1.03304662	     -4.95136206	     -2.87134058	      4.39906780
      0.05000000	     -0.52596395	      0.92102634	    -27.64038714	     -0.97804294	      0.90518552	     -0.39539161	     -4.86119275	     -0.81892442	     -5.52678777	     -1.41944611	     15.87048178	     -0.10417736	      1.58215580	     -0.70955303	    -12.62394981	    -13.29513124	     14.87896498	      1.02383825	     -5.02914161	     -2.85494932	      4.40836678
      0.06000000	     -0.45253015	      0.85788209	    -27.54886425	     -0.97745020	      0.90528490	     -0.39595729	     -4.95589253	     -0.82533274	     -5.66125046	     -1.48628094	     15.89422855	     -0.21928696	      1.49670646	     -0.68802770	    -12.53328290	    -13.33989451	     14.93894044	      0.96097797	     -5.18414962	     -2.81321838	      4.33138573
      0.07000000	     -0.38797149	      0.81997080	    -27.47618941	     -0.97685436	      0.90535703	     -0.39653469	     -5.04639279	     -0.85702234	     -5.72785562	     -1.51736363	     15.90476259	     -0.31288758	      1.42229870	     -0.64112823	    -12.43669342	    -13.36878552	     14.97153106	      0.89281281	     -5.31713261	     -2.79339713	      4.27927576
      0.08000000	     -0.33552468	      0.78735937	    -27.41817917	     -0.97623424	      0.90540724	     -0.39710122	     -5.11782346	     -0.89078834	     -5.79492446	     -1.55823074	     15.92387063	     -0.37114969	      1.35142026	     -0.59425446	    -12.37144223	    -13.38480718	     15.00048158	      0.83943610	     -5.42904312	     -2.77430749	      4.24959689
      0.09000000	     -0.31843782	      0.77446050	    -27.38299425	     -0.97563696	      0.90539990	     -0.39766592	     -5.14197775	     -0.93168420	     -5.80560053	     -1.59906077	     15.92450181	     -0.38389802	      1.33058504	     -0.54829788	    -12.33311794	    -13.41588197	     15.01628461	      0.82702663	     -5.49490070	     -2.75889326	      4.25311659
      0.10000000	     -0.26384450	      0.75262406	    -27.33111847	     -0.97490789	      0.90544018	     -0.39822604	     -5.20770518	     -0.98278466	     -5.91884576	     -1.65788494	     15.97687670	     -0.41157679	      1.22410854	     -0.48122840	    -12.27756224	    -13.37411612	     15.06977751	      0.79153751	     -5.58552931	     -2.75327213	      4.22215912
      0.11000000	     -0.28354436	      0.74197353	    -27.30464393	     -0.97421866	      0.90538437	     -0.39877425	     -5.21741050	     -1.00969083	     -5.91785431	     -1.66536224	     15.97902308	     -0.41216875	      1.21603537	     -0.44903828	    -12.28150852	    -13.37460968	     15.07024010	      0.78971749	     -5.59327259	     -2.72046867	      4.23184632
      0.12000000	     -0.20333155	      0.72648699	    -27.26895660	     -0.97342473	      0.90545768	     -0.39934059	     -5.30562511	     -1.08574683	     -6.04007266	     -1.72549808	     16.08462990	     -0.41812074	      1.04918208	     -0.34951791	    -12.20395102	    -13.26932684	     15.08824269	      0.71983812	     -5.70478900	     -2.73686846	      4.22533585
      0.13000000	     -0.19457679	      0.72091015	    -27.25190609	     -0.97270468	      0.90543779	     -0.39991902	     -5.31779545	     -1.13920705	     -6.05690060	     -1.77631800	     16.07903690	     -0.41692420	      1.01090064	     -0.29214475	    -12.18929326	    -13.26754655	     15.10690684	      0.70233732	     -5.74267656	     -2.72899034	      4.24639651
      0.14000000	     -0.18174350	      0.71618642	    -27.23935057	     -0.97191406	      0.90541629	     -0.40049875	     -5.32561936	     -1.19892400	     -6.10873462	     -1.84741632	     16.13164524	     -0.40961351	      0.94384787	     -0.22512011	    -12.18327060	    -13.22742754	     15.14070819	      0.67561096	     -5.77639078	     -2.72255650	      4.26294176
      0.15000000	     -0.17551296	      0.70911239	    -27.22199838	     -0.97114395	      0.90539051	     -0.40112292	     -5.32888725	     -1.25438039	     -6.12979117	     -1.91347567	     16.16463021	     -0.40111926	      0.91015557	     -0.16718659	    -12.16892077	    -13.23555188	     15.15496852	      0.65444966	     -5.81254941	     -2.71167876	      4.28048645
      0.16000000	     -0.17400259	      0.70497745	    -27.21046607	     -0.97033566	      0.90535440	     -0.40175926	     -5.31490490	     -1.31401931	     -6.16733495	     -2.00294088	     16.20351637	     -0.39314577	      0.87094200	     -0.10566731	    -12.16769250	    -13.22596977	     15.18538865	      0.63130299	     -5.83952488	     -2.69959814	      4.28898523
      0.17000000	     -0.17733139	      0.69802651	    -27.19690909	     -0.96953296	      0.90531306	     -0.40243488	     -5.29540266	     -1.37023567	     -6.19344331	     -2.09239264	     16.24014045	     -0.38638045	      0.84769907	     -0.04924754	    -12.15781224	    -13.23721359	     15.20972424	      0.61021093	     -5.86937472	     -2.68260769	      4.30296830
      0.18000000	     -0.18641217	      0.69161452	    -27.18478593	     -0.96870501	      0.90526385	     -0.40312403	     -5.26139903	     -1.42507550	     -6.22391444	     -2.19863186	     16.27457166	     -0.38308915	      0.82255189	      0.00753698	    -12.15804026	    -13.23626205	     15.23982119	      0.58900402	     -5.89302943	     -2.66250427	      4.30282586
